<svg xmlns="http://www.w3.org/2000/svg" width="218.125" height="52.464" viewBox="0 0 218.125 52.464">
  <g id="iconColp" transform="translate(-1.8 -7.7)">
    <g id="Grupo_713" data-name="Grupo 713" transform="translate(45.71 27.944)">
      <path id="Trazado_218" data-name="Trazado 218" d="M30.031,20.232a8.436,8.436,0,0,1,2.851.57,3.637,3.637,0,0,1,2,1.426l.285.285,3.707-3.707-.285-.285A12.482,12.482,0,0,0,29.461,15.1,11.726,11.726,0,0,0,17.2,27.361,11.814,11.814,0,0,0,20.622,36.2a12.267,12.267,0,0,0,8.839,3.422c3.707,0,6.843-1.141,8.839-3.422l.285-.285-3.136-3.992-.285.285a3.637,3.637,0,0,1-2,1.426,10.131,10.131,0,0,1-2.851.57,5.317,5.317,0,0,1-4.562-2,7.441,7.441,0,0,1-1.711-5.132,7.961,7.961,0,0,1,1.711-5.132A5.8,5.8,0,0,1,30.031,20.232Z" transform="translate(-17.2 -14.245)" fill="#fff"/>
      <path id="Trazado_219" data-name="Trazado 219" d="M41.752,19.966A9.249,9.249,0,0,0,34.909,17.4a9.249,9.249,0,0,0-6.843,2.566A9.033,9.033,0,0,0,25.5,26.524a9.033,9.033,0,0,0,2.566,6.558,9.249,9.249,0,0,0,6.843,2.566,9.249,9.249,0,0,0,6.843-2.566,9.033,9.033,0,0,0,2.566-6.558C44.319,23.958,43.748,21.392,41.752,19.966Zm-4.277,9.409a2.779,2.779,0,0,1-2.566,1.141,3.1,3.1,0,0,1-2.566-1.141,4.817,4.817,0,0,1-.855-2.851,4.257,4.257,0,0,1,.855-2.851,2.779,2.779,0,0,1,2.566-1.141,3.1,3.1,0,0,1,2.566,1.141,5.18,5.18,0,0,1,0,5.7Z" transform="translate(-1.834 -9.987)" fill="#fff"/>
      <path id="Trazado_220" data-name="Trazado 220" d="M40.784,34.474h0c-.57.57-.855.57-1.141.57A1.008,1.008,0,0,1,38.5,33.9V14.8H32.8V34.189a4.785,4.785,0,0,0,1.711,3.992,5.8,5.8,0,0,0,4.277,1.711,6.074,6.074,0,0,0,4.562-2l.285-.285Z" transform="translate(11.68 -14.8)" fill="#fff"/>
      <path id="Trazado_221" data-name="Trazado 221" d="M37.2,38.559V19.17h2.566v2.281a4.492,4.492,0,0,1,2-2,5.376,5.376,0,0,1,6.843.855,6.707,6.707,0,0,1,1.711,4.847c0,2.281-.57,3.992-2,5.132a8.2,8.2,0,0,1-5.132,2,6.081,6.081,0,0,1-3.422-.855v6.558H37.2Zm2.566-12.831v4.277a5.748,5.748,0,0,0,3.136.855,4.722,4.722,0,0,0,3.422-1.426,4.926,4.926,0,0,0,1.426-3.707,4.545,4.545,0,0,0-1.141-3.422,4.134,4.134,0,0,0-5.7,0A4.545,4.545,0,0,0,39.766,25.728Z" transform="translate(19.826 -7.765)" fill="#fff"/>
      <path id="Trazado_222" data-name="Trazado 222" d="M55.886,26.4H45.336a3.959,3.959,0,0,0,1.426,2.851,6.114,6.114,0,0,0,3.422,1.141c1.426,0,2.851-.285,3.422-1.141l1.426,1.426a7.1,7.1,0,0,1-5.417,2,7.1,7.1,0,0,1-5.417-2,6.871,6.871,0,0,1-2-5.132A6.707,6.707,0,0,1,43.911,20.7a6.879,6.879,0,0,1,4.847-2,5.874,5.874,0,0,1,4.847,2,7.441,7.441,0,0,1,1.711,5.132C56.171,26.113,56.171,26.4,55.886,26.4Zm-10.265-2h7.7a2.779,2.779,0,0,0-1.141-2.566A4.246,4.246,0,0,0,49.613,20.7a3.661,3.661,0,0,0-2.851,1.141A4.246,4.246,0,0,0,45.622,24.4Z" transform="translate(29.083 -7.58)" fill="#fff"/>
      <path id="Trazado_223" data-name="Trazado 223" d="M47.7,32.386v-13.4h2.566v2.281a6.662,6.662,0,0,1,2-2,4.689,4.689,0,0,1,2.851-.57,5.42,5.42,0,0,1,3.707,1.426,5.42,5.42,0,0,1,1.426,3.707v8.554H57.68V24.4a3.485,3.485,0,0,0-.855-2.566,3.485,3.485,0,0,0-2.566-.855,3.959,3.959,0,0,0-2.851,1.426,4.545,4.545,0,0,0-1.141,3.422v6.843H47.7Z" transform="translate(39.265 -7.58)" fill="#fff"/>
      <path id="Trazado_224" data-name="Trazado 224" d="M63.25,28.765a3.509,3.509,0,0,1-1.426,2.851c-.855.855-2.281,1.141-3.992,1.141a6.871,6.871,0,0,1-5.132-2l1.426-1.426a5.258,5.258,0,0,0,3.707,1.141,5.371,5.371,0,0,0,2.281-.57,1.528,1.528,0,0,0,.855-1.141,1.481,1.481,0,0,0-.57-1.141,9.652,9.652,0,0,0-2.281-.855h-.285c-.57-.285-1.141-.285-1.711-.57-.285-.285-.855-.285-1.426-.855A2.226,2.226,0,0,1,53.555,24.2a3.087,3.087,0,0,1-.285-1.711A3.509,3.509,0,0,1,54.7,19.641,6.348,6.348,0,0,1,58.4,18.5a6.02,6.02,0,0,1,4.562,1.711l-1.426,1.426A4.288,4.288,0,0,0,58.4,20.5a4.228,4.228,0,0,0-2,.285c-.57.285-.855.57-.855,1.141,0,.285.285.57.57.855s.57.57.855.57a4.818,4.818,0,0,1,1.426.57c.57.285,1.141.285,1.426.57a2.162,2.162,0,0,1,1.141.57,3.936,3.936,0,0,1,1.141.855c.285.285.57.57.57.855A4.086,4.086,0,0,1,63.25,28.765Z" transform="translate(48.521 -7.95)" fill="#fff"/>
      <g id="Grupo_712" data-name="Grupo 712" transform="translate(113.767 5.988)">
        <rect id="Rect치ngulo_432" data-name="Rect치ngulo 432" width="2.566" height="2.566" fill="#fff"/>
        <rect id="Rect치ngulo_433" data-name="Rect치ngulo 433" width="2.566" height="13.401" transform="translate(0 5.417)" fill="#fff"/>
      </g>
      <path id="Trazado_225" data-name="Trazado 225" d="M60.6,30.861a6.467,6.467,0,0,1-2-5.132A7.261,7.261,0,0,1,70.861,20.6a6.467,6.467,0,0,1,2,5.132,6.837,6.837,0,0,1-7.128,7.128A8.2,8.2,0,0,1,60.6,30.861Zm2-8.554a4.545,4.545,0,0,0-1.141,3.422,4.545,4.545,0,0,0,1.141,3.422,4.163,4.163,0,0,0,6.273,0,4.545,4.545,0,0,0,1.141-3.422,4.545,4.545,0,0,0-1.141-3.422,4.163,4.163,0,0,0-6.273,0Z" transform="translate(59.444 -7.765)" fill="#fff"/>
      <path id="Trazado_226" data-name="Trazado 226" d="M64.3,32.386v-13.4h2.566v2.281a6.662,6.662,0,0,1,2-2,4.689,4.689,0,0,1,2.851-.57,5.42,5.42,0,0,1,3.707,1.426,5.42,5.42,0,0,1,1.426,3.707v8.554H74.28V24.4a3.485,3.485,0,0,0-.855-2.566,3.485,3.485,0,0,0-2.566-.855,3.959,3.959,0,0,0-2.851,1.426,4.545,4.545,0,0,0-1.141,3.422v6.843H64.3Z" transform="translate(69.996 -7.58)" fill="#fff"/>
      <path id="Trazado_227" data-name="Trazado 227" d="M82.886,26.4H72.336a3.959,3.959,0,0,0,1.426,2.851,6.114,6.114,0,0,0,3.422,1.141c1.426,0,2.851-.285,3.422-1.141l1.426,1.426a7.1,7.1,0,0,1-5.417,2,7.1,7.1,0,0,1-5.417-2,6.871,6.871,0,0,1-2-5.132A6.707,6.707,0,0,1,70.911,20.7a6.879,6.879,0,0,1,4.847-2,5.874,5.874,0,0,1,4.847,2,7.441,7.441,0,0,1,1.711,5.132C82.886,26.113,82.886,26.4,82.886,26.4Zm-10.55-2h7.7a2.779,2.779,0,0,0-1.14-2.566A4.246,4.246,0,0,0,76.328,20.7a3.661,3.661,0,0,0-2.851,1.141A4.246,4.246,0,0,0,72.336,24.4Z" transform="translate(79.068 -7.58)" fill="#fff"/>
      <path id="Trazado_228" data-name="Trazado 228" d="M85.15,28.765a3.509,3.509,0,0,1-1.426,2.851c-.855.855-2.281,1.141-3.992,1.141a6.871,6.871,0,0,1-5.132-2l1.426-1.426a5.258,5.258,0,0,0,3.707,1.141,5.371,5.371,0,0,0,2.281-.57,1.528,1.528,0,0,0,.855-1.141,1.481,1.481,0,0,0-.57-1.141,9.652,9.652,0,0,0-2.281-.855h-.285c-.57-.285-1.141-.285-1.711-.57-.285-.285-.855-.285-1.426-.855A2.226,2.226,0,0,1,75.455,24.2a3.087,3.087,0,0,1-.285-1.711A3.509,3.509,0,0,1,76.6,19.641,6.348,6.348,0,0,1,80.3,18.5a6.02,6.02,0,0,1,4.562,1.711l-1.426,1.426A4.288,4.288,0,0,0,80.3,20.5a4.228,4.228,0,0,0-2,.285c-.57.285-.855.57-.855,1.141,0,.285.285.57.57.855s.57.57.855.57a4.818,4.818,0,0,1,1.426.57c.57.285,1.141.285,1.426.57a2.162,2.162,0,0,1,1.141.57,3.936,3.936,0,0,1,1.141.855c.285.285.57.57.57.855A4.086,4.086,0,0,1,85.15,28.765Z" transform="translate(89.065 -7.95)" fill="#fff"/>
    </g>
    <g id="Grupo_714" data-name="Grupo 714" transform="translate(1.8 7.7)">
      <path id="Trazado_229" data-name="Trazado 229" d="M26.891,7.7h0q-.428.855-.855.855c-.57.285-.855.57-1.141.57s-1.141-.285-2.851-.57A14.482,14.482,0,0,0,17.2,7.7c-4.562,0-8.554,1.426-11.405,4.562A15.135,15.135,0,0,0,1.8,22.812,14.7,14.7,0,0,0,5.507,33.077a15.717,15.717,0,0,0,11.405,4.277,14.34,14.34,0,0,0,7.7-2.281,12.155,12.155,0,0,0,3.422-3.136v-.285l-.57-.57h-.285a13.4,13.4,0,0,1-3.422,2.566,11.977,11.977,0,0,1-5.988,1.711,8.651,8.651,0,0,1-7.128-3.422,15.957,15.957,0,0,1-2.566-9.409c0-4.277.855-7.413,2.851-9.694s3.707-3.422,6.843-3.422A8.651,8.651,0,0,1,24.9,12.832a13.6,13.6,0,0,1,2.281,4.562h.855a.279.279,0,0,0,.285-.285l-.285-9.124a.279.279,0,0,0-.285-.285Z" transform="translate(-1.8 -7.7)" fill="#fff"/>
      <path id="Trazado_230" data-name="Trazado 230" d="M17.384,15.492a3.9,3.9,0,0,1-3.992,3.992A3.9,3.9,0,0,1,9.4,15.492,3.9,3.9,0,0,1,13.392,11.5a3.9,3.9,0,0,1,3.992,3.992" transform="translate(12.27 -0.665)" fill="#fff"/>
      <path id="Trazado_231" data-name="Trazado 231" d="M36.224,23.455V23.17c0-5.988-3.992-9.694-6.843-11.405-1.426-1.426-3.422-2-5.417-2.566A15.053,15.053,0,0,0,9.136,14.331v.285l.57.57h.285c.855-.855,6.273-5.988,13.116-3.707,0,0,5.132,1.426,6.558,8.554.855,3.707.57,11.69-5.132,14.827,0,0-3.136,2-12.261,1.711a.279.279,0,0,0-.285.285v.285h0s.285,12.546-.57,16.823c-.285.855-.57,1.426-1.426,1.711a13.988,13.988,0,0,1-3.707.855A.279.279,0,0,0,6,56.815v.855a.279.279,0,0,0,.285.285H24.533a.279.279,0,0,0,.285-.285v-.855a.279.279,0,0,0-.285-.285,15.846,15.846,0,0,1-4.277-.855,2.226,2.226,0,0,1-1.141-1.141c-.285-1.426-1.141-5.417-.855-15.4a.279.279,0,0,1,.285-.285C36.509,38.567,36.224,24.881,36.224,23.455Z" transform="translate(5.975 -5.492)" fill="#fff"/>
    </g>
  </g>
</svg>
